<?xml version="1.0" encoding="utf-8"?>
<!-- Generator: Adobe Illustrator 15.0.0, SVG Export Plug-In . SVG Version: 6.00 Build 0)  -->
<!DOCTYPE svg PUBLIC "-//W3C//DTD SVG 1.1//EN" "http://www.w3.org/Graphics/SVG/1.1/DTD/svg11.dtd">
<svg version="1.1" xmlns="http://www.w3.org/2000/svg" xmlns:xlink="http://www.w3.org/1999/xlink" x="0px" y="0px" width="78px"
	 height="63px" viewBox="0 0 78 63" enable-background="new 0 0 78 63" xml:space="preserve">
<g id="Layer_1">
	<image overflow="visible" width="78" height="63" xlink:href="icon-5.png" >
	</image>
</g>
<g id="Layer_2">
	<circle fill="#FFFFFF" cx="25.983" cy="55.5" r="7.5"/>
	<circle fill="#FFFFFF" cx="59.982" cy="55.5" r="7.5"/>
	<path fill="#FFFFFF" d="M64,0c0,0-49.75,0-52.938,0s-3,3.125-3,3.125V8H3.469C1.553,8,0,9.553,0,11.469s1.553,3.469,3.469,3.469
		l28.085,1.84l0.196,0.043c-0.761,3.197-8.938,3.805-8.938,3.805l-8.31,0.428H5.446c-1.864,0-3.375,1.511-3.375,3.375
		s1.511,3.375,3.375,3.375l23.656,1.254c-0.807,3.153-6.29,3.756-6.29,3.756l-14.751,0.76c0,7.64,0,14.353,0,15.615
		c0,3.188,2.564,3.812,2.564,3.812h2.099c1.173-6.261,6.659-11,13.259-11s12.085,4.739,13.259,11h7.404
		c1.174-6.261,6.66-11,13.26-11c6.601,0,12.086,4.739,13.26,11h1.709C77.812,53,78,48.938,78,48.938v-15.25C78,14.812,64,0,64,0z
		 M52,23.938v-15h10.062l5.75,15H52z"/>
</g>
</svg>
