<?xml version="1.0" encoding="utf-8"?>
<!-- Generator: Adobe Illustrator 15.0.0, SVG Export Plug-In . SVG Version: 6.00 Build 0)  -->
<!DOCTYPE svg PUBLIC "-//W3C//DTD SVG 1.1//EN" "http://www.w3.org/Graphics/SVG/1.1/DTD/svg11.dtd">
<svg version="1.1" id="Layer_2" xmlns="http://www.w3.org/2000/svg" xmlns:xlink="http://www.w3.org/1999/xlink" x="0px" y="0px"
	 width="20px" height="18px" viewBox="0 0 20 18" enable-background="new 0 0 20 18" xml:space="preserve">
<path fill="#32425C" d="M17.881,14.166c-2.144-0.735-4.256-1.666-5.207-2.39c-0.657-0.501-0.77-1.618-0.517-2.415
	c1.118-0.903,1.864-2.477,1.864-4.278C14.021,2.276,12.221,0,10,0S5.979,2.276,5.979,5.083c0,1.801,0.746,3.374,1.863,4.277
	c0.253,0.798,0.141,1.915-0.517,2.416c-0.95,0.724-3.063,1.654-5.207,2.39S0,18,0,18h20C20,18,20.025,14.901,17.881,14.166z"/>
</svg>
