<?xml version="1.0" encoding="utf-8"?>
<!-- Generator: Adobe Illustrator 15.0.0, SVG Export Plug-In . SVG Version: 6.00 Build 0)  -->
<!DOCTYPE svg PUBLIC "-//W3C//DTD SVG 1.1//EN" "http://www.w3.org/Graphics/SVG/1.1/DTD/svg11.dtd">
<svg version="1.1" id="Layer_1" xmlns="http://www.w3.org/2000/svg" xmlns:xlink="http://www.w3.org/1999/xlink" x="0px" y="0px"
	 width="19px" height="19px" viewBox="0 0 19 19" enable-background="new 0 0 19 19" xml:space="preserve">
<g id="UrwUhy_1_">
	<g>
		<path fill="#B7BFC8" d="M15.572,18.985c-0.312,0-0.629,0-0.941,0c-4.129-0.488-7.157-2.408-9.359-4.864
			c-2.21-2.461-3.954-5.629-4.294-9.893c0-0.382,0-0.762,0-1.144C1.056,2.31,1.437,1.78,1.876,1.327
			C2.425,0.766,3.25,0.044,4.002,0.019c0.554-0.018,1.5,0.38,1.879,0.899C6.21,1.364,6.385,2.257,6.537,2.921
			c0.154,0.671,0.505,1.643,0.408,2.289C6.797,6.217,5.458,6.644,5.066,7.376c1.307,3.135,3.443,5.439,6.293,7.031
			c0.715-0.392,1.346-1.572,2.332-1.595c0.359-0.009,0.818,0.178,1.184,0.286c0.402,0.121,0.75,0.275,1.104,0.408
			c0.596,0.224,1.648,0.521,2.004,1.021c0.365,0.513,0.57,1.356,0.49,1.879C18.309,17.447,16.594,18.603,15.572,18.985z"/>
	</g>
</g>
</svg>
