<?xml version="1.0" encoding="utf-8"?>
<!-- Generator: Adobe Illustrator 15.0.0, SVG Export Plug-In . SVG Version: 6.00 Build 0)  -->
<!DOCTYPE svg PUBLIC "-//W3C//DTD SVG 1.1//EN" "http://www.w3.org/Graphics/SVG/1.1/DTD/svg11.dtd">
<svg version="1.1" id="Layer_1" xmlns="http://www.w3.org/2000/svg" xmlns:xlink="http://www.w3.org/1999/xlink" x="0px" y="0px"
	 width="15px" height="12px" viewBox="0 0 15 12" enable-background="new 0 0 15 12" xml:space="preserve">
<g>
	<polygon fill="#C1C6CE" points="3,8 3,12 7,12 7,8 9,8 9,12 13,12 13,8 8,3.516 	"/>
	<path fill="#C1C6CE" d="M14.831,6.365L13,4.751V0h-2v2.987L8.332,0.635c-0.02-0.017-0.043-0.023-0.064-0.037
		c-0.026-0.018-0.052-0.035-0.08-0.047C8.156,0.539,8.125,0.533,8.093,0.527C8.062,0.521,8.032,0.515,8,0.515
		c-0.031,0-0.061,0.006-0.092,0.012C7.875,0.533,7.845,0.539,7.813,0.552C7.785,0.563,7.76,0.581,7.733,0.598
		c-0.021,0.014-0.045,0.02-0.064,0.037l-6.498,5.73C0.964,6.548,0.944,6.864,1.126,7.071C1.225,7.183,1.363,7.24,1.501,7.24
		c0.118,0,0.236-0.041,0.331-0.125L8,1.677l6.169,5.438C14.265,7.199,14.383,7.24,14.5,7.24c0.139,0,0.276-0.058,0.375-0.169
		C15.058,6.864,15.038,6.548,14.831,6.365z"/>
</g>
</svg>
