<?xml version="1.0" encoding="utf-8"?>
<!-- Generator: Adobe Illustrator 15.0.0, SVG Export Plug-In . SVG Version: 6.00 Build 0)  -->
<!DOCTYPE svg PUBLIC "-//W3C//DTD SVG 1.1//EN" "http://www.w3.org/Graphics/SVG/1.1/DTD/svg11.dtd">
<svg version="1.1" xmlns="http://www.w3.org/2000/svg" xmlns:xlink="http://www.w3.org/1999/xlink" x="0px" y="0px" width="17px"
	 height="17px" viewBox="0 0 17 17" enable-background="new 0 0 17 17" xml:space="preserve">
<g id="Layer_1">
</g>
<g id="Layer_2">
	<path fill="#ee3643" d="M17,15.586l-3.542-3.542C14.421,10.782,15,9.21,15,7.5C15,3.358,11.643,0,7.5,0C3.358,0,0,3.358,0,7.5
		C0,11.643,3.358,15,7.5,15c1.71,0,3.282-0.579,4.544-1.542L15.586,17L17,15.586z M2,7.5C2,4.467,4.467,2,7.5,2
		C10.532,2,13,4.467,13,7.5c0,3.032-2.468,5.5-5.5,5.5C4.467,13,2,10.532,2,7.5z"/>
</g>
</svg>
