<?xml version="1.0" encoding="utf-8"?>
<!-- Generator: Adobe Illustrator 15.0.0, SVG Export Plug-In . SVG Version: 6.00 Build 0)  -->
<!DOCTYPE svg PUBLIC "-//W3C//DTD SVG 1.1//EN" "http://www.w3.org/Graphics/SVG/1.1/DTD/svg11.dtd">
<svg version="1.1" xmlns="http://www.w3.org/2000/svg" xmlns:xlink="http://www.w3.org/1999/xlink" x="0px" y="0px" width="75px"
	 height="61px" viewBox="0 0 75 61" enable-background="new 0 0 75 61" xml:space="preserve">
<g id="Layer_1">
</g>
<g id="Layer_2">
	<g>
		<path fill="#FFFFFF" d="M5.039,58.949c0,0,0,2.051,1.868,2.051s27.02,0,27.02,0s2.001-0.184,2.001-1.984s0-11.074,0-11.074H5.039
			V58.949z"/>
		<path fill="#FFFFFF" d="M73.875,8.016H60.387c-0.621-2.287-2.071-3.891-3.762-3.891h-7.542v12.75h7.542
			c1.69,0,3.141-1.604,3.762-3.891h13.488c0.575,0,1.042-1.112,1.042-2.484S74.45,8.016,73.875,8.016z"/>
		<path fill="#FFFFFF" d="M2.103,0C0.167,0,0,2.041,0,2.041s0,12.876,0,15.812s2.903,3.002,2.903,3.002s7.072,0,9.007,0
			s1.601,1.334,1.601,1.334s-2.469,13.01-2.735,15.211c-0.267,2.203-1.868,3.604-1.868,3.604s-2.135,1.201-3.002,1.668
			s-0.867,2.201-0.867,2.201h30.889v-0.734c0-1.467-6.472-3.135-9.073-3.402c-2.602-0.266-2.068-2.002-2.068-2.002l1.067-7.805
			h3.002l1.134-7.873h-3.002l0.331-2.737l8.609-0.131c5.805-0.601,10.008-4.07,10.008-4.07V4.109C41.333,0.84,33.993,0,33.993,0
			S4.038,0,2.103,0z M36,4.938v0.031c0,0.55-0.45,1-1,1H5.031c-0.55,0-1-0.45-1-1V4.938c0-0.55,0.45-1,1-1H35
			C35.55,3.938,36,4.388,36,4.938z"/>
	</g>
</g>
</svg>
