<?xml version="1.0" encoding="utf-8"?>
<!-- Generator: Adobe Illustrator 15.0.0, SVG Export Plug-In . SVG Version: 6.00 Build 0)  -->
<!DOCTYPE svg PUBLIC "-//W3C//DTD SVG 1.1//EN" "http://www.w3.org/Graphics/SVG/1.1/DTD/svg11.dtd">
<svg version="1.1" id="Layer_2" xmlns="http://www.w3.org/2000/svg" xmlns:xlink="http://www.w3.org/1999/xlink" x="0px" y="0px"
	 width="59px" height="72px" viewBox="0 0 59 72" enable-background="new 0 0 59 72" xml:space="preserve">
<g>
	<path fill="#FFFFFF" d="M58.34,20.545c-0.566-0.753-1.454-1.195-2.396-1.195H17.274l-2.475-7.385H3.058c-1.657,0-3,1.343-3,3
		s1.343,3,3,3h7.424l13.5,40.285h25.159c1.657,0,3-1.343,3-3s-1.343-3-3-3H28.299l-1.726-5.149h23.12
		c1.338,0,2.514-0.886,2.884-2.172l6.25-21.75C59.087,22.273,58.906,21.298,58.34,20.545z M50.559,30.226h-4.81V25.35h6.211
		L50.559,30.226z M32.942,30.226V25.35h6.807v4.875H32.942z M39.749,36.226v4.875h-6.807v-4.875H39.749z M26.942,25.35v4.875h-6.023
		l-1.634-4.875H26.942z M22.929,36.226h4.013v4.875h-2.379L22.929,36.226z M45.749,41.101v-4.875h3.086l-1.401,4.875H45.749z"/>
	<circle fill="#FFFFFF" cx="27.406" cy="66.094" r="5.781"/>
	<circle fill="#FFFFFF" cx="44.844" cy="66.094" r="5.781"/>
	<path fill="#FFFFFF" d="M29.335,9.699l7.547,5.492c0.914,0.665,2.174,0.441,2.818-0.494c0.646-0.936,0.43-2.232-0.48-2.895
		l-2.373-1.726l9.436-5.09L50.911,17h4.347L49.214,1.309c-0.211-0.548-0.64-0.978-1.177-1.183c-0.536-0.205-1.135-0.166-1.643,0.109
		L33.146,7.382l-3.022-2.199c-0.872-0.634-2.071-0.462-2.742,0.39l-8.481,10.798c-0.169,0.181-0.305,0.395-0.405,0.628h5.106
		L29.335,9.699z"/>
</g>
</svg>
