<?xml version="1.0" encoding="utf-8"?>
<!-- Generator: Adobe Illustrator 15.0.0, SVG Export Plug-In . SVG Version: 6.00 Build 0)  -->
<!DOCTYPE svg PUBLIC "-//W3C//DTD SVG 1.1//EN" "http://www.w3.org/Graphics/SVG/1.1/DTD/svg11.dtd">
<svg version="1.1" id="Layer_1" xmlns="http://www.w3.org/2000/svg" xmlns:xlink="http://www.w3.org/1999/xlink" x="0px" y="0px"
	 width="78px" height="62px" viewBox="0 0 78 62" enable-background="new 0 0 78 62" xml:space="preserve">
<g>
	<path fill="#FFFFFF" d="M16.125,29.749C7.22,29.749,0,36.968,0,45.875C0,54.78,7.22,62,16.125,62s16.125-7.22,16.125-16.125
		C32.251,36.968,25.031,29.749,16.125,29.749z M16.125,53.182c-4.036,0-7.307-3.271-7.307-7.307c0-4.037,3.271-7.308,7.307-7.308
		s7.307,3.271,7.307,7.308C23.433,49.91,20.162,53.182,16.125,53.182z"/>
	<path fill="#FFFFFF" d="M60.854,45.874c-4.453,0-8.062,3.61-8.062,8.062c0,4.453,3.609,8.063,8.062,8.063s8.062-3.61,8.062-8.063
		C68.917,49.484,65.308,45.874,60.854,45.874z M60.854,59c-2.796,0-5.062-2.268-5.062-5.063c0-2.795,2.267-5.062,5.062-5.062
		s5.062,2.268,5.062,5.062C65.917,56.732,63.65,59,60.854,59z"/>
	<path fill="#FFFFFF" d="M77.898,49.727c0,0-2.023-15.102-2.461-18.414c-0.547-4.141-3.625-4.688-3.625-4.688L66,25.946V14h-3v5.833
		h-4v5.295L47.188,23.75c0,0-9.75-20.062-10.562-21.875S33.5,0,33.5,0S11.125,2.375,8.75,3S5.312,6.167,5.312,6.167
		c-2.308,6.37-2.311,17.296-2.266,20.255c3.736-2.517,8.236-3.986,13.079-3.986c12.944,0,23.438,10.493,23.438,23.439
		c0,2.438-0.373,4.789-1.064,7h10.164c0.39-6.402,5.69-11.479,12.191-11.479s11.802,5.077,12.191,11.479H75
		C78.641,52.875,77.898,49.727,77.898,49.727z M23.083,19.833h-6.958V6.167h6.958V19.833z M33.083,19.833h-6.958V6.167h6.958V19.833
		z M53.016,36H49v-7h4.016V36z M60.016,36H56v-7h4.016V36z M67.016,36H63v-7h4.016V36z"/>
</g>
</svg>
